<?xml version="1.0" standalone="no"?>
<!DOCTYPE svg PUBLIC "-//W3C//DTD SVG 20010904//EN"
 "http://www.w3.org/TR/2001/REC-SVG-20010904/DTD/svg10.dtd">
<svg version="1.0" xmlns="http://www.w3.org/2000/svg"
 width="300.000000pt" height="300.000000pt" viewBox="0 0 300.000000 300.000000"
 preserveAspectRatio="xMidYMid meet">
<metadata>
Created by potrace 1.11, written by Peter Selinger 2001-2013
</metadata>
<g transform="translate(0.000000,300.000000) scale(0.100000,-0.100000)"
fill="#000000" stroke="none">
<path d="M1493 2908 c-5 -7 -22 -47 -37 -88 -16 -41 -34 -88 -42 -105 -7 -16
-43 -106 -79 -200 -138 -351 -237 -600 -240 -603 -4 -4 -75 -10 -200 -17 -55
-3 -127 -7 -160 -10 -33 -3 -100 -7 -150 -10 -49 -3 -123 -7 -162 -10 -40 -3
-106 -7 -145 -10 -168 -10 -273 -17 -274 -19 -1 -1 204 -172 559 -467 206
-171 277 -232 277 -239 0 -8 -43 -187 -55 -230 -3 -8 -29 -112 -59 -230 -30
-118 -77 -301 -104 -407 l-49 -191 76 47 c42 26 248 156 458 289 209 133 387
242 394 242 11 0 50 -24 224 -135 28 -18 187 -119 355 -225 168 -106 314 -199
326 -207 21 -13 21 -13 7 39 -41 158 -227 893 -240 948 l-16 65 49 42 c27 23
191 159 364 303 358 297 353 293 398 332 l33 28 -43 1 c-24 1 -56 2 -73 4 -16
1 -82 5 -145 9 -63 4 -142 9 -175 11 -187 13 -237 16 -305 20 -258 16 -352 23
-356 27 -1 2 -68 170 -149 373 -80 204 -170 430 -199 503 -38 96 -55 129 -63
120z"/>
</g>
</svg>
