<svg width="152" height="168" viewBox="0 0 152 168" fill="none" xmlns="http://www.w3.org/2000/svg">
<path d="M103.677 38.7624C105.49 36.2289 107.004 33.3937 107.626 31.51L109.274 33.1771L110.59 27L104.658 28.5162L106.321 30.1988L106.318 30.2011C106.192 30.282 102.819 32.454 96.7839 33.8772C91.4582 35.1304 85.0415 35.231 85.0415 35.231C84.8488 35.8403 83.3903 40.7832 82.1158 45.103L82.1137 45.1098C81.4715 47.2865 80.8761 49.3043 80.5132 50.5287C89.8941 50.5326 99.5726 44.5102 103.677 38.7624Z" fill="white"/>
<path d="M65.3754 70.1237C67.4736 61.6297 71.6548 53.9982 76.9423 47.1249L78.4759 48.966L80.3032 42.9204L74.268 43.9261L75.7863 45.744C67.5995 50.2734 48.5172 61.6104 42.5735 89.4828C41.5816 94.1359 40.7004 101.547 40.7004 101.547C40.7004 101.547 55.613 101.721 63.7311 100.839C63.7136 99.2697 63.6825 97.6921 63.6514 96.11C63.4797 87.3822 63.3053 78.5159 65.3754 70.1237Z" fill="white"/>
<path fill-rule="evenodd" clip-rule="evenodd" d="M60.2749 117.939C60.2749 119.916 59.5234 122.008 57.9478 123.536C56.4409 124.994 54.3122 125.764 52.1148 125.764C49.9174 125.764 47.7886 124.998 46.2817 123.536C44.71 122.008 43.9546 119.916 43.9546 117.939C43.9546 115.94 44.7062 113.824 46.2817 112.319C47.7886 110.861 49.9174 110.095 52.1148 110.095C54.3122 110.095 56.4409 110.857 57.9478 112.319C59.5196 113.824 60.2749 115.94 60.2749 117.939ZM49.12 115.058C48.3227 115.847 47.945 116.949 47.945 118.005C47.945 119.332 48.5669 120.252 49.12 120.79C49.8296 121.486 50.8291 121.981 52.1148 121.981C53.4233 121.981 54.3999 121.509 55.0866 120.813C55.7733 120.117 56.2845 119.08 56.2845 117.935C56.2845 116.767 55.7733 115.731 55.0866 115.058C54.2664 114.272 53.1334 113.866 52.1148 113.866C51.0504 113.866 49.9174 114.249 49.12 115.058Z" fill="white"/>
<path d="M41.9937 125.424V110.428H29V125.424H32.8378V113.754H38.1368V125.424H41.9937Z" fill="white"/>
<path fill-rule="evenodd" clip-rule="evenodd" d="M49.6959 132.119C47.5061 132.119 46.5867 133.608 46.5867 135.086C46.5867 136.826 47.8418 137.801 49.1694 137.801C49.5395 137.801 49.8332 137.712 50.0926 137.6L48.1508 140.126L49.2839 141L51.7788 137.596C52.3091 136.885 52.8127 136.057 52.8127 134.993C52.8089 133.485 51.775 132.119 49.6959 132.119ZM49.6959 136.498C48.8337 136.498 48.1813 135.848 48.1813 134.958C48.1813 134.069 48.8337 133.419 49.6959 133.419C50.5581 133.419 51.2066 134.069 51.2066 134.958C51.2066 135.848 50.5581 136.498 49.6959 136.498Z" fill="white"/>
<path d="M40.4564 133.709H41.639V140.652H43.2374V132.309H40.4564V133.709Z" fill="white"/>
<path fill-rule="evenodd" clip-rule="evenodd" d="M58.745 132.158H60.1832V137.879H61.1408V139.178H60.1832V140.656H58.6839V139.178H54.6744V138.451L58.745 132.158ZM56.5705 137.875H58.6839V134.56L56.5705 137.875Z" fill="white"/>
<path d="M65.9401 134.974C65.7303 134.974 65.5586 134.997 65.3984 135.024L65.6921 133.709H68.4198V132.309H64.6316L63.6588 136.687H63.7579C64.3493 136.235 64.9139 136.15 65.3335 136.15C66.5886 136.15 67.1914 136.95 67.1914 137.824C67.1914 138.776 66.5276 139.437 65.5433 139.437C64.5209 139.437 63.8342 138.838 63.4642 138.374L62.9339 139.774C63.8915 140.725 64.9253 140.838 65.5777 140.838C67.8399 140.838 68.786 139.375 68.786 137.797C68.7899 135.999 67.55 134.974 65.9401 134.974Z" fill="white"/>
<path d="M71.0749 136.374H77.5947V137.674H71.0749V136.374Z" fill="white"/>
<path d="M84.0609 137.689L84.0619 137.688C84.7027 136.988 85.5487 136.064 85.5487 134.773C85.5487 133.446 84.5645 132.119 82.6608 132.119C81.0395 132.119 79.8568 133.206 79.7843 134.908H81.4324C81.4591 134.196 81.9016 133.519 82.7371 133.519C83.4238 133.519 83.9541 134.034 83.9541 134.784C83.9541 135.272 83.6946 135.786 83.4734 136.123C83.2383 136.485 82.5757 137.268 82.2461 137.658C82.1638 137.755 82.1023 137.828 82.0733 137.863L79.6623 140.652H85.6136V139.252H82.6494L84.0609 137.689Z" fill="white"/>
<path fill-rule="evenodd" clip-rule="evenodd" d="M87.9713 136.474C87.9713 133.608 89.5087 132.119 91.1453 132.119C92.7781 132.119 94.3155 133.608 94.3194 136.486C94.3194 139.352 92.7819 140.841 91.1453 140.841C89.5087 140.841 87.9713 139.352 87.9713 136.474ZM89.5698 136.471C89.5698 138.648 90.4434 139.437 91.1453 139.437C91.8435 139.437 92.7171 138.652 92.7209 136.471C92.7209 134.308 91.832 133.519 91.1453 133.519C90.4548 133.519 89.5698 134.305 89.5698 136.471Z" fill="white"/>
<path d="M100.488 137.689L100.489 137.688C101.13 136.988 101.976 136.064 101.976 134.773C101.976 133.446 100.992 132.119 99.0881 132.119C97.4668 132.119 96.2841 133.206 96.2117 134.908H97.8597C97.8864 134.196 98.329 133.519 99.1644 133.519C99.8511 133.519 100.381 134.034 100.381 134.784C100.381 135.272 100.122 135.786 99.9007 136.123C99.6656 136.485 99.003 137.268 98.6734 137.658C98.5911 137.755 98.5296 137.828 98.5006 137.863L96.0896 140.652H102.041V139.252H99.0767L100.488 137.689Z" fill="white"/>
<path fill-rule="evenodd" clip-rule="evenodd" d="M104.395 136.474C104.395 133.608 105.932 132.119 107.569 132.119C109.205 132.119 110.743 133.608 110.743 136.486C110.743 139.352 109.205 140.841 107.569 140.841C105.932 140.841 104.395 139.352 104.395 136.474ZM105.993 136.471C105.993 138.648 106.867 139.437 107.569 139.437C108.271 139.437 109.144 138.652 109.144 136.471C109.144 134.308 108.255 133.519 107.569 133.519C106.878 133.519 105.993 134.305 105.993 136.471Z" fill="white"/>
<path fill-rule="evenodd" clip-rule="evenodd" d="M72.1659 124.074C72.9632 123.265 73.3867 122.093 73.3867 120.883C73.3867 119.622 72.9442 118.523 72.2575 117.781C71.1473 116.613 69.4649 116.319 67.5766 116.319H66.0696V113.735H71.834V110.428H62.2089V125.424H67.443C69.217 125.424 70.9909 125.242 72.1659 124.074ZM66.0658 119.285H67.3973C67.8856 119.285 68.5951 119.309 69.0377 119.691C69.2818 119.916 69.4802 120.299 69.4802 120.817C69.4802 121.266 69.3238 121.625 69.1025 121.873C68.6371 122.368 67.8169 122.391 67.3934 122.391H66.0658V119.285Z" fill="white"/>
<path d="M83.7099 110.428V113.731H79.1435V116.226H83.4658V119.533H79.1435V122.117H83.7099V125.424H75.3056V110.428H83.7099Z" fill="white"/>
<path fill-rule="evenodd" clip-rule="evenodd" d="M100.767 128.797V122.411H98.9926V110.428H87.8148V116.589C87.8148 118.724 87.6393 120.345 86.5292 121.513C85.976 122.097 85.419 122.322 84.843 122.411V128.797H88.3031V125.424H97.3064V128.797H100.767ZM95.1319 122.411H89.8978C90.5196 121.757 90.9163 121.061 91.1834 120.117C91.4924 118.991 91.5382 117.688 91.5382 116.968V113.437H95.1319V122.411Z" fill="white"/>
<path fill-rule="evenodd" clip-rule="evenodd" d="M101.736 125.424L107.412 110.428H111.605L117.171 125.424H113.07L112.162 122.906H106.794L105.795 125.424H101.736ZM109.472 115.081L107.855 119.939H111.136L109.472 115.081Z" fill="white"/>
<path d="M122.359 121.892C121.871 121.397 121.272 121.173 120.719 121.173C120.23 121.173 119.631 121.331 119.101 121.869C118.811 122.163 118.414 122.701 118.414 123.509C118.414 124.318 118.815 124.859 119.101 125.149C119.631 125.687 120.23 125.845 120.719 125.845C121.295 125.845 121.871 125.621 122.336 125.149C122.737 124.743 123 124.248 123 123.509C123.004 122.77 122.737 122.275 122.359 121.892Z" fill="white"/>
<path d="M118.857 110.428H122.538V120.322H118.857V110.428Z" fill="white"/>
<path d="M79.8646 56.7986C88.4177 49.0356 106.798 48.556 110.018 63.2039C116.049 90.6277 73.3602 99.9765 72.0249 99.9069V80.8689C80.3072 79.6118 95.5593 76.2273 96.7419 66.716C97.936 57.1235 87.2694 55.8123 80.662 58.4154L81.7225 60.5389L75.6148 60.0864L78.7888 54.6442L79.8646 56.7986Z" fill="white"/>
<path d="M75.1033 41.3385L75.9617 39.0641C75.9655 39.0641 62.0868 38.1358 44.9501 52.2074V30.7287C50.7335 29.518 56.6619 29.1815 61.5145 30.3999C70.3347 32.6163 76.5225 37.37 76.5835 37.4241L77.4342 35.142L81.1271 40.3406L75.1033 41.3385Z" fill="white"/>
</svg>
