<svg width="192" height="80" viewBox="0 0 192 80" fill="none" xmlns="http://www.w3.org/2000/svg">
<path d="M56.8468 27.8382C57.7622 26.5808 58.5293 25.1741 58.8438 24.2403L59.6762 25.0668L60.3425 22L57.3434 22.7526L58.1846 23.5879C58.1758 23.5949 56.465 24.6957 53.3617 25.4132C50.6683 26.0357 47.4235 26.0849 47.4235 26.0849C47.3108 26.4336 46.3422 29.6578 45.652 31.9556C45.444 32.6479 45.2613 33.2561 45.1349 33.6763C49.8765 33.6798 54.7702 30.6904 56.8468 27.8382Z" fill="white"/>
<path fill-rule="evenodd" clip-rule="evenodd" d="M101.498 33.2157C101.498 35.3047 100.687 37.5134 98.9917 39.1277C97.3693 40.6716 95.0789 41.4787 92.716 41.4787C90.3531 41.4787 88.0627 40.6716 86.4403 39.1277C84.7455 37.5134 83.9343 35.3047 83.9343 33.2157C83.9343 31.102 84.7455 28.8704 86.4403 27.279C88.0627 25.7351 90.3531 24.9279 92.716 24.9279C95.0789 24.9279 97.3693 25.7368 98.9917 27.279C100.687 28.8704 101.498 31.102 101.498 33.2157ZM89.4942 30.1752C88.6353 31.007 88.2288 32.1694 88.2288 33.286C88.2288 34.6875 88.8986 35.6599 89.4942 36.2279C90.2577 36.9647 91.3322 37.487 92.716 37.487C94.1228 37.487 95.1726 36.9893 95.9131 36.2525C96.6518 35.5175 97.2014 34.4255 97.2014 33.2139C97.2014 31.9794 96.6536 30.8874 95.9131 30.1752C95.0312 29.3435 93.8135 28.9162 92.716 28.9162C91.5708 28.9162 90.3531 29.3206 89.4942 30.1752Z" fill="white"/>
<path d="M81.826 41.1217V25.2848H67.8413V41.1217H71.9697V28.7982H77.6746V41.1217H81.826Z" fill="white"/>
<path fill-rule="evenodd" clip-rule="evenodd" d="M77.7823 48.1943C75.4265 48.1943 74.435 49.7664 74.435 51.3262C74.435 53.162 75.7852 54.1925 77.2132 54.1925C77.6091 54.1925 77.9272 54.0993 78.2064 53.9815L76.1157 56.6508L77.3334 57.5758L80.0197 53.9815C80.5888 53.2288 81.1313 52.3566 81.1313 51.233C81.1313 49.6345 80.0197 48.1943 77.7823 48.1943ZM77.7823 52.8191C76.8562 52.8191 76.1546 52.1315 76.1546 51.1943C76.1546 50.257 76.8562 49.5694 77.7823 49.5694C78.7084 49.5694 79.41 50.257 79.41 51.1943C79.41 52.1315 78.7084 52.8191 77.7823 52.8191Z" fill="white"/>
<path d="M67.8413 49.8719H69.112V57.2047H70.8316V48.393H67.8413V49.8719Z" fill="white"/>
<path fill-rule="evenodd" clip-rule="evenodd" d="M87.522 48.2329H89.0719V54.2698H90.104V55.6449H89.0719V57.2047H87.4566V55.6449H83.1426V54.8782L87.522 48.2329ZM85.1786 54.2716H87.4548V50.7704L85.1786 54.2716Z" fill="white"/>
<path d="M95.261 51.2066C95.0366 51.2066 94.851 51.233 94.6778 51.2594L94.9959 49.8719H97.9332V48.3913H93.8578L92.8116 53.0161H92.9176C93.552 52.5395 94.1618 52.4481 94.6107 52.4481C95.9609 52.4481 96.6077 53.2939 96.6077 54.2189C96.6077 55.223 95.8937 55.9229 94.8351 55.9229C93.7359 55.9229 92.9954 55.288 92.5995 54.8009L92.0304 56.2816C93.0625 57.2857 94.1741 57.4035 94.8758 57.4035C97.3111 57.4035 98.3291 55.8578 98.3291 54.1925C98.3308 52.2898 96.9948 51.2066 95.261 51.2066Z" fill="white"/>
<path d="M100.791 52.6855H107.809V54.0606H100.791V52.6855Z" fill="white"/>
<path d="M114.763 54.0747L114.766 54.0718C115.455 53.3318 116.364 52.3549 116.364 50.9956C116.364 49.5941 115.306 48.1943 113.254 48.1943C111.508 48.1943 110.237 49.3444 110.158 51.1415H111.93C111.957 50.3889 112.434 49.6749 113.333 49.6749C114.074 49.6749 114.643 50.2166 114.643 51.0096C114.643 51.5249 114.366 52.0665 114.127 52.4235C113.852 52.8351 113.045 53.7677 112.727 54.1342L112.727 54.1345L112.722 54.1399C112.675 54.1949 112.639 54.2365 112.618 54.2611L110.023 57.2065H116.428V55.7259H113.24L114.763 54.0747Z" fill="white"/>
<path fill-rule="evenodd" clip-rule="evenodd" d="M118.971 52.7927C118.971 49.7664 120.625 48.1943 122.386 48.1943C124.146 48.1943 125.8 49.7664 125.8 52.805C125.8 55.8314 124.146 57.4035 122.386 57.4035C120.625 57.4035 118.971 55.8314 118.971 52.7927ZM120.692 52.791C120.692 55.0911 121.631 55.9228 122.386 55.9228C123.138 55.9228 124.079 55.0911 124.079 52.791C124.079 50.5049 123.126 49.6732 122.386 49.6732C121.645 49.6732 120.692 50.5049 120.692 52.791Z" fill="white"/>
<path d="M132.442 54.0747L132.444 54.0718C133.133 53.3318 134.043 52.3549 134.043 50.9956C134.043 49.5941 132.984 48.1943 130.932 48.1943C129.186 48.1943 127.916 49.3444 127.836 51.1415H129.609C129.635 50.3889 130.112 49.6749 131.012 49.6749C131.752 49.6749 132.321 50.2166 132.321 51.0096C132.321 51.5249 132.044 52.0665 131.805 52.4235C131.531 52.8351 130.723 53.7677 130.406 54.1342L130.342 54.2073L130.319 54.2347L130.302 54.2536L130.296 54.2611L127.702 57.2065H134.106V55.7259H130.918L132.442 54.0747Z" fill="white"/>
<path fill-rule="evenodd" clip-rule="evenodd" d="M136.648 52.7927C136.648 49.7664 138.302 48.1943 140.062 48.1943C141.822 48.1943 143.477 49.7664 143.477 52.805C143.477 55.8314 141.822 57.4035 140.062 57.4035C138.302 57.4035 136.648 55.8314 136.648 52.7927ZM138.369 52.791C138.369 55.0911 139.308 55.9228 140.062 55.9228C140.817 55.9228 141.755 55.0911 141.755 52.791C141.755 50.5049 140.803 49.6732 140.062 49.6732C139.322 49.6732 138.369 50.5049 138.369 52.791Z" fill="white"/>
<path fill-rule="evenodd" clip-rule="evenodd" d="M114.291 39.6973C115.15 38.8427 115.604 37.6082 115.604 36.3263C115.604 34.9969 115.127 33.8328 114.387 33.0485C113.194 31.814 111.381 31.5045 109.352 31.5045H107.729V28.7754H113.934V25.2848H103.578V41.1217H109.21C111.119 41.1217 113.028 40.9317 114.291 39.6973ZM107.729 37.9159V34.6399H109.161C109.686 34.6399 110.449 34.6645 110.926 35.0672C111.188 35.3046 111.404 35.7073 111.404 36.2542C111.404 36.729 111.236 37.1088 110.997 37.3708C110.495 37.8931 109.613 37.9159 109.159 37.9159H107.729Z" fill="white"/>
<path d="M126.717 25.2848V28.7754H121.801V31.4113H126.454V34.9002H121.801V37.6311H126.717V41.1217H117.672V25.2848H126.717Z" fill="white"/>
<path fill-rule="evenodd" clip-rule="evenodd" d="M145.069 44.6843V37.9406H143.16V25.2848H131.132V31.7912C131.132 34.0473 130.941 35.7565 129.748 36.991C129.151 37.6082 128.555 37.8456 127.935 37.9406V44.6843H131.657V41.1217H141.345V44.6843H145.069ZM139.009 37.9406H133.376C134.044 37.2512 134.474 36.5162 134.76 35.5191C135.094 34.3322 135.142 32.9535 135.142 32.1939V28.4659H139.009V37.9406Z" fill="white"/>
<path fill-rule="evenodd" clip-rule="evenodd" d="M146.113 41.1217L152.223 25.2848H156.735L162.724 41.1217H158.31L157.33 38.4628H151.555L150.48 41.1217H146.113ZM154.443 30.198L152.7 35.3275H156.233L154.443 30.198Z" fill="white"/>
<path d="M168.307 37.3937C167.782 36.8714 167.137 36.634 166.542 36.634C166.017 36.634 165.372 36.7993 164.799 37.3708C164.488 37.6786 164.059 38.2501 164.059 39.1047C164.059 39.9593 164.488 40.5291 164.799 40.8385C165.372 41.4083 166.017 41.5753 166.542 41.5753C167.162 41.5753 167.782 41.338 168.284 40.8385C168.714 40.4112 169 39.889 169 39.1047C169 38.3204 168.714 37.7981 168.307 37.3937Z" fill="white"/>
<path d="M164.538 25.2848H168.498V35.7319H164.538V25.2848Z" fill="white"/>
<path d="M37.4772 43.4007C38.5376 39.1856 40.6513 35.3978 43.327 31.9864L44.1028 32.899L45.0253 29.8991L41.9732 30.3967L42.7402 31.2988C38.6012 33.5497 28.9517 39.1751 25.9473 53.0055C25.4454 55.3144 25 58.9931 25 58.9931C25 58.9931 32.5411 59.0793 36.6465 58.6414C36.6376 57.863 36.6218 57.0803 36.606 56.2953C36.5187 51.9663 36.43 47.5657 37.4772 43.4007Z" fill="white"/>
<path d="M44.8027 36.7871C49.1273 32.936 58.4216 32.6969 60.051 39.9664C63.1014 53.5771 41.5138 58.2159 40.8369 58.1843V48.736C45.0272 48.1099 52.7379 46.4324 53.337 41.7108C53.9415 36.9489 48.5459 36.2982 45.2057 37.5907L45.7429 38.644L42.6554 38.419L44.2584 35.7179L44.8027 36.7871Z" fill="white"/>
<path d="M42.3957 29.1166L42.8304 27.9877C42.8322 27.9877 35.8142 27.527 27.1473 34.5099V23.85C30.0722 23.2503 33.0714 23.0833 35.5226 23.6882C39.9833 24.7873 43.1132 27.1471 43.1432 27.1735L43.5744 26.041L45.4407 28.6207L42.3957 29.1166Z" fill="white"/>
</svg>
